<svg version="1.0" xmlns="http://www.w3.org/2000/svg"
 width="1256.000000pt" height="708.000000pt" viewBox="0 0 1256.000000 708.000000"
 preserveAspectRatio="xMidYMid meet">

<g transform="translate(0.000000,708.000000) scale(0.100000,-0.100000)"
fill="rgb(220, 38, 38)" stroke="none">
<path d="M3887 4733 c-171 -4 -161 7 -101 -113 19 -38 34 -71 34 -73 0 -2 36
-80 81 -172 44 -92 103 -218 131 -279 184 -404 258 -572 258 -588 0 -9 -27
-78 -59 -152 -33 -74 -80 -183 -105 -242 -24 -60 -112 -268 -195 -462 -83
-194 -151 -353 -151 -355 0 -1 66 1 147 4 82 4 182 7 223 8 l76 1 104 248
c154 368 186 437 196 436 5 -1 27 -41 49 -90 22 -49 89 -199 151 -334 l111
-245 119 2 c65 1 163 2 216 3 l96 0 -13 28 c-13 24 -116 263 -406 936 -55 126
-99 236 -99 243 0 8 16 51 35 96 19 45 132 308 250 585 118 277 215 505 215
508 0 2 -97 4 -215 4 l-215 0 -21 -42 c-11 -24 -75 -171 -142 -328 -68 -158
-128 -285 -135 -285 -12 0 -63 110 -227 490 l-73 170 -94 0 c-51 1 -160 -1
-241 -2z"/>
<path d="M520 3355 c0 -756 1 -1375 3 -1375 6 0 366 50 395 55 l32 6 0 741 c0
408 2 739 5 736 4 -4 60 -161 360 -1026 73 -211 135 -385 137 -387 2 -2 98 7
213 20 116 14 220 25 233 25 l22 0 0 1290 0 1290 -215 0 -215 0 -2 -767 -3
-768 -87 240 c-48 132 -164 454 -258 715 -94 261 -179 498 -189 525 l-19 50
-206 3 -206 2 0 -1375z"/>
<path d="M2340 3460 l0 -1270 23 4 c23 5 43 7 347 31 223 17 772 55 806 55
l24 0 0 215 0 214 -47 -4 c-27 -3 -160 -12 -298 -21 -137 -9 -289 -19 -337
-23 l-88 -7 0 323 0 323 290 0 290 0 0 217 0 216 -290 -7 -290 -7 0 291 0 290
385 0 385 0 0 215 0 215 -600 0 -600 0 0 -1270z"/>
<path d="M5376 4714 c-3 -9 -6 -98 -6 -199 0 -154 3 -186 16 -199 13 -14 48
-16 230 -16 l214 0 0 -990 0 -990 103 0 c56 0 153 3 215 7 l112 6 0 984 0 983
209 0 c115 0 216 3 225 6 14 5 16 34 16 215 l0 209 -664 0 c-596 0 -664 -2
-670 -16z"/>
<path d="M6990 3535 l0 -1195 215 0 215 0 0 490 0 490 290 0 290 0 0 215 0
215 -290 0 -290 0 0 275 0 275 385 0 385 0 0 215 0 215 -600 0 -600 0 0 -1195z"/>
<path d="M8470 3525 l0 -1205 33 0 c96 0 943 -44 1070 -56 l67 -6 0 216 0 216
-22 0 c-38 0 -588 30 -655 36 l-63 6 0 999 0 999 -215 0 -215 0 0 -1205z"/>
<path d="M10002 3483 l3 -1248 150 -12 c83 -6 178 -14 213 -17 l62 -7 0 1266
0 1265 -215 0 -215 0 2 -1247z"/>
<path d="M10805 4713 c15 -41 331 -856 408 -1056 l85 -217 -273 -633 -273
-632 47 -7 c86 -14 402 -44 406 -38 2 3 71 163 155 355 83 193 155 354 159
358 4 4 19 -23 34 -60 14 -37 83 -214 152 -393 69 -179 131 -330 138 -336 7
-6 107 -23 222 -38 116 -15 223 -30 238 -33 l28 -6 -25 64 c-13 35 -99 258
-191 494 -92 237 -207 535 -257 663 l-90 233 85 197 c146 339 438 1015 458
1060 l18 42 -237 0 -237 0 -135 -313 c-74 -171 -143 -332 -153 -356 -10 -24
-22 -39 -26 -35 -5 5 -68 165 -142 356 l-134 348 -234 0 c-218 0 -233 -1 -226
-17z"/>
</g>
</svg>
